HIERARCHY
ROOT Hips
{
	OFFSET 0.00000 0.00000 0.00000
	CHANNELS 6 Xposition Yposition Zposition Zrotation Yrotation Xrotation 
	JOINT LHipJoint
	{
		OFFSET 0 0 0
		CHANNELS 3 Zrotation Yrotation Xrotation
		JOINT LeftUpLeg
		{
			OFFSET 1.57093 -1.69714 0.87455
			CHANNELS 3 Zrotation Yrotation Xrotation
			JOINT LeftLeg
			{
				OFFSET 2.48056 -6.81529 0.00000
				CHANNELS 3 Zrotation Yrotation Xrotation
				JOINT LeftFoot
				{
					OFFSET 2.62558 -7.21374 0.00000
					CHANNELS 3 Zrotation Yrotation Xrotation
					JOINT LeftToeBase
					{
						OFFSET 0.17911 -0.49210 2.16707
						CHANNELS 3 Zrotation Yrotation Xrotation
						End Site
						{
							OFFSET 0.00000 -0.00000 1.11848
						}
					}
				}
			}
		}
	}
	JOINT RHipJoint
	{
		OFFSET 0 0 0
		CHANNELS 3 Zrotation Yrotation Xrotation
		JOINT RightUpLeg
		{
			OFFSET -1.69739 -1.69715 0.87455
			CHANNELS 3 Zrotation Yrotation Xrotation
			JOINT RightLeg
			{
				OFFSET -2.33658 -6.41972 0.00000
				CHANNELS 3 Zrotation Yrotation Xrotation
				JOINT RightFoot
				{
					OFFSET -2.60856 -7.16696 0.00000
					CHANNELS 3 Zrotation Yrotation Xrotation
					JOINT RightToeBase
					{
						OFFSET -0.20854 -0.57296 2.11053
						CHANNELS 3 Zrotation Yrotation Xrotation
						End Site
						{
							OFFSET -0.00000 -0.00000 1.09848
						}
					}
				}
			}
		}
	}
	JOINT LowerBack
	{
		OFFSET 0 0 0
		CHANNELS 3 Zrotation Yrotation Xrotation
		JOINT Spine
		{
			OFFSET 0.02563 2.15732 -0.03270
			CHANNELS 3 Zrotation Yrotation Xrotation
			JOINT Spine1
			{
				OFFSET 0.00281 2.14662 0.09285
				CHANNELS 3 Zrotation Yrotation Xrotation
				JOINT Neck
				{
					OFFSET 0 0 0
					CHANNELS 3 Zrotation Yrotation Xrotation
					JOINT Neck1
					{
						OFFSET -0.04440 1.68397 0.17601
						CHANNELS 3 Zrotation Yrotation Xrotation
						JOINT Head
						{
							OFFSET 0.06040 1.66995 -0.35615
							CHANNELS 3 Zrotation Yrotation Xrotation
							End Site
							{
								OFFSET 0.02405 1.72189 -0.14044
							}
						}
					}
				}
				JOINT LeftShoulder
				{
					OFFSET 0 0 0
					CHANNELS 3 Zrotation Yrotation Xrotation
					JOINT LeftArm
					{
						OFFSET 2.98955 1.90907 -0.21660
						CHANNELS 3 Zrotation Yrotation Xrotation
						JOINT LeftForeArm
						{
							OFFSET 4.91377 -0.00000 0.00000
							CHANNELS 3 Zrotation Yrotation Xrotation
							JOINT LeftHand
							{
								OFFSET 3.00291 -0.00000 -0.00000
								CHANNELS 3 Zrotation Yrotation Xrotation
								JOINT LeftFingerBase
								{
									OFFSET 0 0 0
									CHANNELS 3 Zrotation Yrotation Xrotation
									JOINT LeftHandIndex1
									{
										OFFSET 0.45092 -0.00000 -0.00000
										CHANNELS 3 Zrotation Yrotation Xrotation
										End Site
										{
											OFFSET 0.36355 -0.00000 -0.00000
										}
									}
								}
								JOINT LThumb
								{
									OFFSET 0 0 0
									CHANNELS 3 Zrotation Yrotation Xrotation
									End Site
									{
										OFFSET 0.36910 -0.00000 0.36910
									}
								}
							}
						}
					}
				}
				JOINT RightShoulder
				{
					OFFSET 0 0 0
					CHANNELS 3 Zrotation Yrotation Xrotation
					JOINT RightArm
					{
						OFFSET -2.80452 1.90886 -0.21152
						CHANNELS 3 Zrotation Yrotation Xrotation
						JOINT RightForeArm
						{
							OFFSET -4.86725 -0.00000 0.00000
							CHANNELS 3 Zrotation Yrotation Xrotation
							JOINT RightHand
							{
								OFFSET -3.17144 -0.00000 -0.00000
								CHANNELS 3 Zrotation Yrotation Xrotation
								JOINT RightFingerBase
								{
									OFFSET 0 0 0
									CHANNELS 3 Zrotation Yrotation Xrotation
									JOINT RightHandIndex1
									{
										OFFSET -0.41937 -0.00000 -0.00000
										CHANNELS 3 Zrotation Yrotation Xrotation
										End Site
										{
											OFFSET -0.33810 -0.00000 -0.00000
										}
									}
								}
								JOINT RThumb
								{
									OFFSET 0 0 0
									CHANNELS 3 Zrotation Yrotation Xrotation
									End Site
									{
										OFFSET -0.34327 -0.00000 0.34327
									}
								}
							}
						}
					}
				}
			}
		}
	}
}
MOTION
Frames: 11
Frame Time: 0.0204082
0.00 0.00 0.00 0 0 0 0 0 0 -21 0 0 0 0 0 0 0 0 0 0 0 0 0 0 21 0 0 0 0 0 0 0 0 0 0 0 0 0 0 0 0 0 0 0 0 0 0 -16 0 0 21 0 0 11 0 0 0 -8 0 0 0 0 0 0 0 0 0 0 0 0 0 0 0 0 0 0 0 0 8 0 0 0 0 0 0 0 0 0 0 0 0 0 0 0 0 0
0.00 0.00 0.00 3.0141 -1.8973 99.3936 0.0000 0.0000 0.0000 -23.7356 -12.8756 -29.2279 6.3406 14.7505 46.3338 0.5472 5.5565 13.1881 0.3327 3.7070 10.2538 0.0000 0.0000 0.0000 19.8877 6.5192 -30.8285 -6.5561 -14.9464 47.1749 -0.4092 -16.3030 15.2484 -1.7161 -8.2478 23.4692 0.9680 -1.0562 -4.5874 1.0241 -1.4721 -2.1718 0.4365 -0.7459 0.3441 -8.3381 -0.4913 -10.7593 3.9493 0.2033 47.0964 3.6313 -0.8817 20.4668 -0.0000 0.0000 0.0000 88.2462 -34.9731 -106.4675 7.8237 -13.2667 -0.9112 -0.0000 -0.0000 22.6658 43.4293 -31.4064 -26.2567 -7.1250 0.0000 -0.0000 6.4737 -9.8485 -7.5297 -0.0000 0.0000 0.0000 -99.3361 31.5041 -96.8424 -12.1006 19.9554 -2.1365 0.0000 0.0000 27.6828 -28.6205 -18.0894 9.6166 7.1250 -0.0000 -0.0000 -0.5582 -50.3899 0.0742
0.00 0.00 0.00 3.3102 -2.1508 107.4090 0.0000 0.0000 0.0000 -17.9577 -24.0281 -32.7002 2.4938 9.8266 28.4172 0.8528 10.3590 16.9451 0.6573 5.1854 14.4380 0.0000 0.0000 0.0000 14.3493 18.0476 -30.6546 -1.9307 -8.7203 24.9242 -0.3352 -20.2352 16.8503 -1.3121 -7.2556 20.4748 -1.1100 -1.3866 -10.9014 2.5530 -1.8417 -3.4689 3.0387 -0.9296 2.6106 -8.6545 -1.2861 -13.0973 1.3713 0.5189 46.8152 2.4526 -1.0814 21.0291 0.0000 0.0000 0.0000 78.7872 -31.9303 -87.5798 13.1319 -21.4802 -2.5014 -0.0000 -0.0000 3.5506 52.6275 -35.0350 -36.9288 -7.1250 0.0000 -0.0000 10.0546 -18.4998 -12.8848 0.0000 0.0000 0.0000 -95.3930 28.2191 -86.1945 -20.2929 30.9937 -5.6814 0.0000 0.0000 4.3320 -22.5453 -17.7767 7.2235 7.1250 -0.0000 -0.0000 5.3679 -49.0494 -0.5375
0.00 0.00 0.00 3.1620 -2.0851 105.6790 0.0000 0.0000 0.0000 -17.3390 -24.2952 -35.9543 1.8467 8.5391 24.3640 -0.1207 12.2833 6.8643 0.3967 4.0439 11.2001 0.0000 0.0000 0.0000 12.1203 20.9245 -33.5630 -1.0790 -6.6025 18.5430 1.4926 -23.3570 2.2226 -1.5001 -7.7364 21.9162 -2.2389 -1.4790 -9.8750 3.1654 -1.8728 -3.3683 4.3343 -0.9389 2.2064 -9.2689 -1.2107 -15.4765 1.0244 1.1605 43.9477 2.4561 -0.8922 19.6647 -0.0000 0.0000 0.0000 70.0816 -31.0194 -91.1022 10.6739 -17.7866 -1.6749 -0.0000 -0.0000 11.1988 40.0854 -8.4953 -7.0875 -7.1250 0.0000 -0.0000 9.3469 19.0113 -5.8705 -0.0000 0.0000 0.0000 -84.6364 26.2236 -73.9303 -25.0004 36.2044 -8.2901 0.0000 -0.0000 -14.0984 -17.6811 -11.2928 3.5720 7.1250 -0.0000 -0.0000 8.4389 -41.6674 0.6993
0.00 0.00 0.00 3.1201 -2.0652 99.8121 0.0000 0.0000 0.0000 -22.9122 -15.2943 -32.2746 3.8935 12.0174 35.7934 0.1902 5.6290 8.1435 0.0456 1.3779 3.7893 0.0000 0.0000 0.0000 18.4216 10.0251 -32.2879 -3.3948 -11.3082 33.3265 -0.0570 -11.9661 9.1670 -0.9760 -6.2891 17.6257 -5.3473 -1.2859 -5.9406 4.4532 -1.4930 -3.0496 7.5860 -0.6826 0.4198 -5.8303 -1.9645 -21.2302 -1.0548 -0.0887 37.1900 0.5473 -0.9813 17.2243 -0.0000 0.0000 0.0000 42.6768 -25.6575 -76.4104 8.2797 -14.0053 -1.0188 -0.0000 -0.0000 18.6900 38.6089 -6.8043 -5.4047 -7.1250 0.0000 -0.0000 8.5669 21.3367 -4.9168 -0.0000 0.0000 0.0000 -57.9926 17.0915 -42.4024 -24.9733 36.1767 -8.2741 0.0000 0.0000 13.2373 -28.9424 9.2004 -5.0528 7.1250 -0.0000 -0.0000 -1.4275 -19.4953 -0.8695
0.00 0.00 0.00 1.7046 -1.8106 97.7185 0.0000 0.0000 0.0000 -24.1996 -9.9761 -31.0984 7.6662 15.8681 51.3511 0.3782 2.2271 11.0599 0.2793 3.3990 9.3917 0.0000 0.0000 0.0000 20.3042 5.8919 -31.1009 -7.0498 -15.3736 49.0622 -0.6600 -11.5567 15.5138 -1.2286 -7.0298 19.8038 -7.4636 -0.6117 -4.2568 5.8697 -0.5608 -3.8271 10.4673 -0.0443 -1.4926 -5.1815 -2.6558 -23.9189 -1.7836 -0.8676 38.2358 -0.1066 -1.3263 18.5155 0.0000 0.0000 0.0000 20.5907 -23.7267 -46.5341 14.1831 -22.9958 -2.8992 -0.0000 0.0000 -14.9299 37.0665 -1.6317 -1.2322 -7.1250 0.0000 -0.0000 8.0836 27.9041 -3.3918 0.0000 0.0000 0.0000 -43.0627 17.2357 -35.8423 -27.2246 38.3926 -9.6383 0.0000 0.0000 6.3656 -27.9957 3.0086 -1.5982 7.1250 -0.0000 -0.0000 -1.0603 -26.5730 -0.4741
0.00 0.00 0.00 1.6760 -1.8461 97.9993 0.0000 0.0000 0.0000 -23.9841 -8.4194 -30.8107 11.3376 18.0964 63.8733 0.5657 2.7747 13.5297 0.3120 3.5909 9.9286 0.0000 0.0000 0.0000 20.3238 4.5612 -31.2001 -10.9671 -17.9189 62.6747 -0.8498 -14.2725 17.9932 -1.7124 -8.2393 23.4434 -12.7477 2.0373 -5.1468 7.2406 3.4235 -6.4389 15.3870 2.7231 -5.3455 -5.0134 -6.6318 -22.9769 -3.0211 -6.4236 43.5425 -2.1868 -3.4072 21.7442 0.0000 0.0000 0.0000 -0.5160 -33.4309 -26.4800 29.9034 -40.8105 -11.3465 -0.0000 0.0000 -42.0089 37.2355 1.2094 0.9190 -7.1250 0.0000 -0.0000 8.5147 31.4285 -2.8534 0.0000 0.0000 0.0000 -28.3537 13.8677 -27.3410 -38.3695 47.0736 -17.2356 0.0000 -0.0000 -31.5662 -29.5883 -11.9289 6.6939 7.1250 -0.0000 -0.0000 -2.1917 -43.6239 -0.0745
0.00 0.00 0.00 2.6783 -2.1481 99.8444 0.0000 0.0000 0.0000 -23.4946 -8.6934 -31.3940 14.4551 19.2463 73.5896 0.8390 4.0137 16.4214 0.3744 3.9298 10.8792 0.0000 0.0000 0.0000 20.1125 2.6700 -33.1567 -14.6745 -19.3060 74.2544 -1.4285 -14.8388 22.3294 -1.8806 -8.6128 24.5914 -14.1616 2.5870 -6.3451 7.0193 4.4263 -7.9169 16.0232 3.6027 -6.8538 -5.9172 -7.7329 -20.1824 -2.6874 -7.9188 36.1333 -1.6693 -4.2468 16.5520 -0.0000 -0.0000 0.0000 -18.9557 -35.8009 -5.2487 73.7096 -58.9731 -45.9407 -0.0000 0.0000 -48.5069 37.8175 5.3383 4.1302 -7.1250 0.0000 -0.0000 9.3902 36.5843 -1.9648 -0.0000 -0.0000 0.0000 -14.7101 15.4136 -19.6238 -64.2855 57.3478 -37.9289 0.0000 -0.0000 -44.0735 -30.1666 -16.0492 9.1288 7.1250 -0.0000 -0.0000 -2.3768 -48.3697 0.1977
0.00 0.00 0.00 2.6848 -2.1813 100.4490 0.0000 0.0000 0.0000 -23.2234 -8.6398 -31.4489 15.1487 19.4261 75.6843 1.0210 4.0586 18.1716 0.5217 4.6292 12.8539 0.0000 0.0000 0.0000 20.1654 2.3584 -33.4324 -15.4761 -19.5021 76.6667 -1.8344 -14.3783 24.8393 -1.7954 -8.4263 24.0166 -14.6210 2.8902 -6.7917 6.9257 4.9473 -8.3174 16.1952 3.9914 -7.3180 -6.1328 -8.1282 -18.3719 -2.6491 -8.5499 32.4840 -1.4934 -4.5884 14.4133 -0.0000 -0.0000 0.0000 -24.6761 -37.7303 3.1618 94.7472 -59.9147 -64.1101 -0.0000 0.0000 -47.8481 37.6519 7.2546 5.5648 -7.1250 0.0000 -0.0000 9.4133 38.9496 -1.4179 -0.0000 -0.0000 0.0000 -9.8395 15.6285 -13.2397 -82.5261 59.7879 -53.5320 0.0000 -0.0000 -45.8504 -30.7661 -15.4355 9.0034 7.1250 -0.0000 -0.0000 -3.0265 -47.7708 0.2071
0.00 0.00 0.00 2.7775 -2.2715 101.3380 0.0000 0.0000 0.0000 -22.9422 -9.0170 -31.6999 15.4848 19.5040 76.6929 1.2669 3.8111 20.3602 0.6479 5.1490 14.3340 0.0000 0.0000 0.0000 20.2090 2.3365 -33.8007 -15.7984 -19.5714 77.6306 -2.3205 -12.9054 27.5556 -1.6875 -8.1823 23.2691 -15.2568 3.2624 -7.5319 6.7753 5.6282 -8.7931 16.4148 4.4920 -7.7998 -5.9411 -8.6157 -16.6164 -3.1337 -9.2883 29.2397 -1.6136 -4.9846 12.6246 -0.0000 -0.0000 0.0000 -30.2580 -40.2606 12.8333 111.9861 -58.0923 -78.9185 -0.0000 0.0000 -46.1867 36.9403 8.2302 6.1435 -7.1250 0.0000 -0.0000 8.8572 40.0835 -1.0832 -0.0000 -0.0000 0.0000 -5.3619 14.6054 -5.0336 -102.0551 59.4437 -70.4205 0.0000 -0.0000 -44.5400 -29.9093 -13.5413 7.6710 7.1250 -0.0000 -0.0000 -2.3695 -45.4941 0.0289
0.00 0.00 0.00 3.4135 -2.5516 103.3760 0.0000 0.0000 0.0000 -22.5044 -10.7932 -32.5846 15.2197 19.4431 75.8977 1.7393 4.0547 23.9700 0.7250 5.4406 15.1697 0.0000 0.0000 0.0000 20.2597 2.5895 -34.9175 -15.3507 -19.4736 76.2908 -2.8638 -11.0917 30.5220 -1.5741 -7.9160 22.4592 -16.5226 3.6660 -9.2384 6.4795 6.5830 -9.7458 16.8951 5.2780 -8.5250 -5.1617 -9.5385 -14.6173 -4.2816 -10.6388 26.4574 -2.1131 -5.6640 11.0202 -0.0000 0.0000 0.0000 -39.0446 -42.8243 29.1793 126.4552 -54.3288 -90.9699 -0.0000 0.0000 -40.0808 35.0960 5.0898 3.5673 -7.1250 0.0000 -0.0000 7.0709 36.1157 -1.5540 -0.0000 0.0000 0.0000 0.3695 11.2973 7.5145 -121.8647 55.7922 -87.2058 0.0000 -0.0000 -34.6907 -26.2441 -9.3737 4.5909 7.1250 -0.0000 -0.0000 0.6257 -40.4075 0.0708
